<svg width="12" height="13" viewBox="0 0 12 13" fill="none" xmlns="http://www.w3.org/2000/svg">
<g clip-path="url(#clip0_1_170)">
<path fill-rule="evenodd" clip-rule="evenodd" d="M1.56362 11.4286C1.56362 12.2143 2.22491 12.8571 3.03315 12.8571H8.91127C9.71951 12.8571 10.3808 12.2143 10.3808 11.4286V4.28571C10.3808 3.5 9.71951 2.85714 8.91127 2.85714H3.03315C2.22491 2.85714 1.56362 3.5 1.56362 4.28571V11.4286ZM10.3808 0.714286H8.54389L8.0222 0.207143C7.88995 0.0785714 7.69891 0 7.50787 0H4.43655C4.24551 0 4.05447 0.0785714 3.92222 0.207143L3.40053 0.714286H1.56362C1.1595 0.714286 0.828857 1.03571 0.828857 1.42857C0.828857 1.82143 1.1595 2.14286 1.56362 2.14286H10.3808C10.7849 2.14286 11.1156 1.82143 11.1156 1.42857C11.1156 1.03571 10.7849 0.714286 10.3808 0.714286Z" fill="#1D1D1D"/>
</g>
<defs>
<clipPath id="clip0_1_170">
<rect width="10.2867" height="12.8571" fill="white" transform="translate(0.828857)"/>
</clipPath>
</defs>
</svg>
