<svg width="11" height="12" viewBox="0 0 11 12" fill="none" xmlns="http://www.w3.org/2000/svg">
<g clip-path="url(#clip0_1_508)">
<path fill-rule="evenodd" clip-rule="evenodd" d="M2.42178 5.43893H8.61262V3.56298H6.64029C6.43323 3.56298 6.14506 3.45134 6.00861 3.31489C5.87216 3.17844 5.78914 2.93225 5.78914 2.72615V0.729008H0.777694C0.760518 0.729008 0.74716 0.737595 0.738572 0.746183C0.724259 0.755725 0.720442 0.76813 0.720442 0.78626V10.9437C0.720442 10.9571 0.72903 10.9742 0.737618 10.9828C0.746206 10.9962 0.764335 11 0.77674 11C2.9504 11 6.31968 11 8.55441 11C8.57159 11 8.57063 10.9914 8.58017 10.9828C8.59353 10.9742 8.61166 10.9561 8.61166 10.9437V9.87882H2.42178C2.02674 9.87882 1.7004 9.55439 1.7004 9.15744V6.15935C1.7004 5.76336 2.02483 5.43893 2.42178 5.43893ZM2.81586 6.53817H3.84735C4.04964 6.53817 4.21472 6.56584 4.33972 6.62118C4.46472 6.67653 4.56777 6.75573 4.64983 6.85878C4.73094 6.96183 4.7901 7.08206 4.82731 7.21851C4.86453 7.35496 4.88266 7.5 4.88266 7.65363C4.88266 7.89313 4.85594 8.0792 4.8006 8.21183C4.74621 8.34447 4.67082 8.45515 4.5735 8.54389C4.47617 8.63359 4.37216 8.69275 4.26147 8.72233C4.10976 8.76336 3.9714 8.7834 3.84831 8.7834H2.81586V6.53817ZM3.50861 7.04676V8.2729H3.67941C3.82445 8.2729 3.92846 8.25668 3.98953 8.22519C4.0506 8.19275 4.0983 8.13645 4.13361 8.05725C4.16892 7.9771 4.18609 7.84733 4.18609 7.66699C4.18609 7.42939 4.14697 7.26718 4.06968 7.17844C3.99143 7.09065 3.86262 7.04676 3.68227 7.04676H3.50861ZM5.05823 7.66221C5.05823 7.2958 5.16033 7.0105 5.36453 6.8063C5.56873 6.6021 5.85308 6.5 6.21758 6.5C6.59163 6.5 6.87884 6.60019 7.08113 6.80057C7.28342 7.00095 7.38456 7.28244 7.38456 7.64313C7.38456 7.90553 7.34067 8.12023 7.25193 8.28817C7.16319 8.45611 7.03533 8.58683 6.8693 8.68034C6.70231 8.77386 6.4943 8.82061 6.24525 8.82061C5.99239 8.82061 5.78247 8.78053 5.61643 8.69943C5.4504 8.61832 5.31586 8.49046 5.21281 8.31679C5.10976 8.14313 5.05823 7.92462 5.05823 7.66221ZM5.75098 7.66412C5.75098 7.89027 5.79296 8.05344 5.87788 8.15267C5.96281 8.25191 6.07731 8.30153 6.22235 8.30153C6.37121 8.30153 6.48762 8.25286 6.56872 8.15649C6.65078 8.05916 6.69182 7.8855 6.69182 7.63454C6.69182 7.42367 6.64888 7.26908 6.56395 7.17176C6.47808 7.07443 6.36262 7.02576 6.21663 7.02576C6.07636 7.02576 5.96376 7.07538 5.87884 7.17462C5.79392 7.27195 5.75098 7.43607 5.75098 7.66412ZM9.1546 7.8645L9.76338 8.04771C9.72235 8.21851 9.65842 8.36069 9.56968 8.47424C9.48189 8.58874 9.37311 8.67462 9.24239 8.73282C9.11262 8.79103 8.94659 8.81966 8.74525 8.81966C8.50098 8.81966 8.30155 8.78435 8.14602 8.71374C7.99143 8.64313 7.85785 8.51813 7.74525 8.33969C7.63266 8.16126 7.57636 7.93225 7.57636 7.65458C7.57636 7.2834 7.67559 6.99809 7.87311 6.79866C8.07159 6.59924 8.35117 6.5 8.71281 6.5C8.99525 6.5 9.21853 6.55725 9.37979 6.67176C9.54105 6.78626 9.66224 6.96183 9.74048 7.19943L9.12884 7.33492C9.10785 7.26718 9.08495 7.21756 9.06109 7.18607C9.02197 7.13359 8.97426 7.09256 8.91892 7.06393C8.86262 7.03531 8.79964 7.02099 8.72998 7.02099C8.57254 7.02099 8.45136 7.08397 8.36739 7.20992C8.30441 7.30344 8.27197 7.45038 8.27197 7.65076C8.27197 7.89981 8.30918 8.06966 8.38552 8.16221C8.4609 8.25382 8.56777 8.30057 8.70422 8.30057C8.83685 8.30057 8.93705 8.26336 9.00479 8.18893C9.0754 8.1145 9.12407 8.00668 9.1546 7.8645ZM9.33113 5.43893H10.2786C10.6756 5.43893 11 5.76431 11 6.16031V9.1584C11 9.55439 10.6746 9.87977 10.2786 9.87977H9.33113V11.1727C9.33113 11.3263 9.26911 11.4628 9.16891 11.5639C9.06777 11.6651 8.93132 11.7261 8.77769 11.7261C5.96853 11.7261 3.37788 11.7261 0.554412 11.7261C0.400786 11.7261 0.264335 11.6651 0.16319 11.5639C0.0620453 11.4628 0.000976562 11.3263 0.000976562 11.1727V0.558206C0.000976562 0.40458 0.0629995 0.26813 0.16319 0.166985C0.264335 0.0658397 0.404602 0.00477099 0.554412 0.00477099H6.15746C6.16987 0 6.18323 0 6.19659 0C6.25766 0 6.31968 0.0267176 6.36357 0.0658397H6.37216C6.38075 0.0706107 6.38552 0.0744275 6.39411 0.0830153L9.25575 2.97996C9.30441 3.02863 9.33972 3.09447 9.33972 3.16889C9.33972 3.19084 9.33495 3.20802 9.33113 3.23092V5.43893ZM6.44277 2.66889V0.853053L8.48762 2.92366H6.69754C6.62693 2.92366 6.56586 2.89313 6.5172 2.84924C6.4733 2.80534 6.44277 2.7395 6.44277 2.66889Z" fill="#91ACC5"/>
</g>
<defs>
<clipPath id="clip0_1_508">
<rect width="11" height="11.7252" fill="white"/>
</clipPath>
</defs>
</svg>
