<svg width="22" height="20" viewBox="0 0 22 20" fill="none" xmlns="http://www.w3.org/2000/svg">
<path d="M17.0285 15.7812H4.51085C4.38296 15.7812 4.26031 15.8306 4.16989 15.9185C4.07946 16.0065 4.02866 16.1257 4.02866 16.25C4.02866 16.3743 4.07946 16.4935 4.16989 16.5815C4.26031 16.6694 4.38296 16.7188 4.51085 16.7188H17.0285C17.1564 16.7188 17.279 16.6694 17.3694 16.5815C17.4599 16.4935 17.5107 16.3743 17.5107 16.25C17.5107 16.1257 17.4599 16.0065 17.3694 15.9185C17.279 15.8306 17.1564 15.7812 17.0285 15.7812Z" fill="black"/>
<path d="M17.2663 3.86878C16.3566 2.98441 14.7332 3.12191 13.6467 4.18128L7.15966 10.4844C7.09935 10.542 7.05606 10.6143 7.03429 10.6938L6.06992 14.1813C6.04945 14.2606 6.05054 14.3437 6.07307 14.4225C6.0956 14.5013 6.1388 14.573 6.19844 14.6307C6.25807 14.6883 6.3321 14.7299 6.41326 14.7514C6.49442 14.7729 6.57993 14.7735 6.6614 14.7532L10.2457 13.8157C10.3275 13.7964 10.4021 13.7553 10.4611 13.6969L16.0384 8.26878L16.9481 7.38441C17.9318 6.47191 18.2532 4.81253 17.2663 3.86878Z" fill="black"/>
</svg>
