<svg width="10" height="10" viewBox="0 0 10 10" fill="none" xmlns="http://www.w3.org/2000/svg">
<g clip-path="url(#clip0_1_549)">
<path d="M4.06807 0H4.06937V0.000569666C5.19234 0.00089519 6.2092 0.456384 6.94504 1.19239C7.67967 1.92734 8.13475 2.9433 8.13548 4.06538H8.13605V4.06807V4.07132H8.13548C8.13508 4.52356 8.06086 4.95878 7.92438 5.36463C7.90151 5.43274 7.87759 5.49817 7.85301 5.56067V5.56124C7.73533 5.8591 7.58323 6.14068 7.40159 6.40004L9.76831 8.52725L9.76977 8.52855L9.78255 8.54043L9.78345 8.54133C9.91707 8.66853 9.98983 8.83886 9.99902 9.01171C10.008 9.18261 9.95483 9.35742 9.83797 9.49764L9.83708 9.49894L9.82283 9.51546L9.81999 9.51831L9.8081 9.53133L9.8068 9.53304C9.67944 9.66666 9.50944 9.73926 9.33642 9.74837C9.16576 9.7574 8.9908 9.70442 8.8505 9.5874L8.84927 9.5865L8.83267 9.57226L8.83031 9.57031L6.40964 7.39467C6.33802 7.44513 6.26494 7.49306 6.19097 7.53831C6.09063 7.59975 5.9867 7.65761 5.88066 7.71043C5.33549 7.98241 4.71944 8.1354 4.06815 8.1354V8.13597H4.06685V8.1354C2.94387 8.13508 1.92685 7.67959 1.19101 6.94358C0.45614 6.20863 0.00130209 5.19251 0.000569666 4.07075H0V4.06807V4.06676H0.000569666C0.00089519 2.94379 0.456384 1.92677 1.19239 1.19093C1.92734 0.456384 2.9433 0.00130209 4.06538 0.000569666V0H4.06807ZM4.06937 0.91228V0.912849H4.06807H4.06538V0.91228C3.19575 0.912849 2.40749 1.26629 1.83685 1.83668C1.26629 2.40708 0.912524 3.19615 0.91228 4.06685H0.912849V4.06815V4.07083H0.91228C0.912849 4.94047 1.26604 5.72832 1.83668 6.29912C2.40708 6.86977 3.19615 7.22353 4.06676 7.22369V7.22312H4.06807H4.07075V7.22369C4.94039 7.22312 5.72832 6.86985 6.29912 6.29929C6.86969 5.72889 7.22345 4.94006 7.22361 4.06945H7.22312V4.06815V4.06546H7.22361C7.22312 3.19583 6.8696 2.40757 6.29929 1.83693C5.72889 1.26629 4.94006 0.912524 4.06937 0.91228Z" fill="#BEB8B8"/>
</g>
<defs>
<clipPath id="clip0_1_549">
<rect width="10" height="9.74935" fill="white"/>
</clipPath>
</defs>
</svg>
