<svg width="17" height="17" viewBox="0 0 17 17" fill="none" xmlns="http://www.w3.org/2000/svg">
<g clip-path="url(#clip0_1_67)">
<path fill-rule="evenodd" clip-rule="evenodd" d="M8.5 0C10.847 0 12.9721 0.951535 14.5103 2.4897C16.0485 4.02787 17 6.153 17 8.5C17 10.847 16.0485 12.9721 14.5103 14.5103C12.9721 16.0485 10.847 17 8.5 17C6.153 17 4.02787 16.0485 2.4897 14.5103C0.951535 12.9721 0 10.847 0 8.5C0 6.153 0.951535 4.02787 2.4897 2.4897C4.02787 0.951535 6.153 0 8.5 0ZM9.14899 10.0367C9.11977 10.7692 7.8791 10.7702 7.85078 10.0364C7.72531 8.78123 7.4044 5.80128 7.41462 4.62187C7.42498 4.25843 7.72617 4.04328 8.11156 3.9612C8.23036 3.9358 8.36098 3.92348 8.4926 3.92361C8.62498 3.92385 8.75596 3.93689 8.8749 3.96229C9.27297 4.0471 9.58551 4.27112 9.58538 4.6411L9.58392 4.67819L9.14899 10.0367ZM8.49987 11.3386C8.97975 11.3386 9.36873 11.7276 9.36873 12.2076C9.36873 12.6874 8.97975 13.0764 8.49987 13.0764C8.01998 13.0764 7.63091 12.6874 7.63091 12.2076C7.63091 11.7276 8.01998 11.3386 8.49987 11.3386Z" fill="#D90202"/>
</g>
<defs>
<clipPath id="clip0_1_67">
<rect width="17" height="17" fill="white"/>
</clipPath>
</defs>
</svg>
