<svg width="12" height="12" viewBox="0 0 12 12" fill="none" xmlns="http://www.w3.org/2000/svg">
<g clip-path="url(#clip0_1_339)">
<path fill-rule="evenodd" clip-rule="evenodd" d="M0.173828 0.390625L0.0175781 0.737305H4.31934L4.16113 0.390625H2.24609C2.23101 0.390754 2.21604 0.387894 2.20207 0.38221C2.18809 0.376525 2.17538 0.36813 2.16467 0.357507C2.15396 0.346884 2.14545 0.334245 2.13965 0.320318C2.13385 0.306392 2.13086 0.291454 2.13086 0.276367V0H0.493164V0.274414C0.493425 0.289665 0.490631 0.304813 0.484944 0.318967C0.479258 0.33312 0.470795 0.345992 0.460056 0.356822C0.449316 0.367653 0.436516 0.376224 0.422411 0.38203C0.408306 0.387835 0.393182 0.390758 0.37793 0.390625H0.173828ZM6.78516 9.68848L7.06641 11.8584C7.06675 11.8946 7.08055 11.9293 7.1051 11.9558C7.12965 11.9824 7.1632 11.9988 7.19922 12.002H10.6172C10.6963 12.002 10.7402 11.9258 10.75 11.8555L11.1143 9.68848H6.78516ZM6.95898 9.125L6.80273 9.47266H11.0996L10.9414 9.12402H9.02734C9.01226 9.12415 8.99729 9.12129 8.98332 9.11561C8.96934 9.10992 8.95663 9.10153 8.94592 9.09091C8.93521 9.08028 8.9267 9.06764 8.9209 9.05372C8.9151 9.03979 8.91211 9.02485 8.91211 9.00977V8.73438H7.27734V9.00879C7.27734 9.03909 7.26531 9.06815 7.24388 9.08958C7.22245 9.11101 7.19339 9.12305 7.16309 9.12305L6.95898 9.125ZM6.53027 5.41895L6.8125 7.58887C6.8126 7.62493 6.82619 7.65965 6.85058 7.68621C6.87497 7.71277 6.90841 7.72925 6.94434 7.73242H10.3623C10.4414 7.73242 10.4854 7.65625 10.4951 7.58594L10.8594 5.41895H6.53027ZM6.7041 4.85547L6.54785 5.2041H10.8496L10.6914 4.85547H8.77246C8.75737 4.85547 8.74244 4.85248 8.72851 4.84668C8.71458 4.84088 8.70194 4.83237 8.69132 4.82166C8.6807 4.81095 8.6723 4.79823 8.66662 4.78426C8.66093 4.77028 8.65807 4.75532 8.6582 4.74023V4.4668H7.02344V4.74121C7.02318 4.7716 7.01093 4.80066 6.98934 4.82206C6.96776 4.84346 6.9386 4.85547 6.9082 4.85547H6.7041ZM2.45898 6.11816H5.73242V6.7041H2.45898V10.8057H5.7002V11.3916H1.87305V3.68262H2.45898V6.11816ZM0 0.952148L0.28125 3.125C0.281815 3.16109 0.295682 3.19569 0.320191 3.22219C0.344701 3.24868 0.378128 3.26519 0.414062 3.26855H3.83203C3.91113 3.26855 3.95508 3.19238 3.96484 3.12207L4.33203 0.952148H0Z" fill="white"/>
</g>
<defs>
<clipPath id="clip0_1_339">
<rect width="11.1172" height="12" fill="white"/>
</clipPath>
</defs>
</svg>
